<svg width="741" height="733" viewBox="0 0 741 733" fill="none" xmlns="http://www.w3.org/2000/svg">
<g clip-path="url(#clip0_1622_3798)">
<mask id="mask0_1622_3798" style="mask-type:luminance" maskUnits="userSpaceOnUse" x="-12" y="0" width="742" height="733">
<path d="M729.653 0H-11.3467V733H729.653V0Z" fill="white"/>
</mask>
<g mask="url(#mask0_1622_3798)">
<path fill-rule="evenodd" clip-rule="evenodd" d="M293.67 280.356C302.756 289.26 302.823 303.764 293.825 312.75L262.796 343.736L392.269 471.814L532.575 335.606V206.156H401.583L385.211 222.351C376.169 231.296 361.506 231.296 352.463 222.351C343.421 213.406 343.421 198.902 352.463 189.957L375.617 167.053C379.959 162.757 385.85 160.344 391.991 160.344H555.731C561.872 160.344 567.761 162.757 572.105 167.053C576.447 171.349 578.888 177.175 578.888 183.25V345.222C578.888 351.37 576.387 357.262 571.95 361.571L365.463 562.025C338.401 588.297 295.041 588.251 268.038 561.92L171.449 467.741C144.077 441.051 143.815 397.449 170.864 370.438L260.922 280.51C269.923 271.522 284.586 271.453 293.67 280.356ZM359.214 503.903L230.201 376.281L203.765 402.68C194.749 411.683 194.836 426.217 203.96 435.113L300.55 529.292C309.55 538.07 324.004 538.086 333.024 529.329L359.214 503.903ZM345.681 251.966C345.681 264.618 335.314 274.873 322.525 274.873C309.736 274.873 299.369 264.618 299.369 251.966C299.369 239.315 309.736 229.06 322.525 229.06C335.314 229.06 345.681 239.315 345.681 251.966ZM507.777 229.061C516.82 238.005 516.82 252.509 507.777 261.454C498.735 270.401 484.072 270.401 475.03 261.454C465.987 252.509 465.987 238.005 475.03 229.061C484.072 220.115 498.735 220.115 507.777 229.061Z" fill="#D3D3D3"/>
</g>
</g>
<defs>
<clipPath id="clip0_1622_3798">
<rect width="741" height="733" fill="white"/>
</clipPath>
</defs>
</svg>
