<svg width="512" height="512" viewBox="0 0 512 512" fill="none" xmlns="http://www.w3.org/2000/svg">
<path fill-rule="evenodd" clip-rule="evenodd" d="M111.283 302.151C115.253 310.044 112.07 319.664 104.175 323.632C71.7292 339.945 58.667 358.296 58.667 373.338C58.667 389.628 74.1125 409.707 111.717 426.629C147.819 442.874 198.817 453.338 256 453.338C313.184 453.338 364.182 442.874 400.284 426.629C437.888 409.707 453.334 389.628 453.334 373.338C453.334 358.296 440.271 339.945 407.825 323.632C399.93 319.664 396.747 310.044 400.717 302.151C404.687 294.256 414.304 291.073 422.2 295.043C457.314 312.698 485.334 339.205 485.334 373.338C485.334 410.066 453.022 437.987 413.415 455.811C372.305 474.309 316.638 485.338 256 485.338C195.363 485.338 139.694 474.309 98.5851 455.811C58.9778 437.987 26.667 410.066 26.667 373.338C26.667 339.205 54.6862 312.698 89.8011 295.043C97.6959 291.073 107.314 294.256 111.283 302.151Z" fill="#DFDFDF"/>
<path fill-rule="evenodd" clip-rule="evenodd" d="M256 58.667C241.272 58.667 229.334 70.606 229.334 85.3337C229.334 100.061 241.272 112 256 112C270.729 112 282.667 100.061 282.667 85.3337C282.667 70.606 270.729 58.667 256 58.667ZM197.334 85.3337C197.334 52.933 223.599 26.667 256 26.667C288.401 26.667 314.667 52.933 314.667 85.3337C314.667 117.734 288.401 144 256 144C223.599 144 197.334 117.734 197.334 85.3337ZM362.441 152.829C392.751 146.334 421.334 169.44 421.334 200.439C421.334 221.398 407.924 240.002 388.041 246.631L341.634 262.1C338.71 263.074 336.96 263.661 335.663 264.152C334.842 264.461 334.496 264.628 334.413 264.67C332.662 265.775 331.708 267.796 331.968 269.85C331.99 269.942 332.081 270.313 332.363 271.143C332.809 272.457 333.468 274.181 334.575 277.058L361.174 346.213C373.122 377.278 350.191 410.667 316.905 410.667C299.885 410.667 284.171 401.547 275.725 386.769L256 352.25L236.276 386.769C227.83 401.547 212.115 410.667 195.095 410.667C161.81 410.667 138.879 377.278 150.827 346.213L177.426 277.058C178.532 274.181 179.192 272.457 179.638 271.143C179.92 270.313 180.012 269.942 180.033 269.85C180.293 267.796 179.339 265.775 177.588 264.67C177.504 264.628 177.159 264.461 176.338 264.152C175.041 263.661 173.291 263.074 170.367 262.1L123.96 246.631C104.078 240.002 90.667 221.398 90.667 200.439C90.667 169.44 119.249 146.334 149.56 152.829L190.041 161.503C192.313 161.991 193.375 162.218 194.422 162.434C235.045 170.837 276.956 170.837 317.579 162.434C318.626 162.218 319.687 161.99 321.959 161.503L362.441 152.829ZM389.334 200.439C389.334 189.813 379.535 181.892 369.146 184.119L328.593 192.808C326.409 193.276 325.231 193.529 324.06 193.771C279.162 203.058 232.839 203.058 187.94 193.771C186.768 193.529 185.591 193.276 183.405 192.808L142.855 184.119C132.465 181.892 122.667 189.813 122.667 200.439C122.667 207.623 127.264 214.001 134.08 216.273L180.486 231.742C180.873 231.87 181.262 232 181.652 232.128C186.037 233.581 190.594 235.092 194.351 237.41C206.919 245.169 213.73 259.606 211.73 274.238C211.132 278.612 209.401 283.089 207.735 287.399C207.587 287.783 207.439 288.165 207.293 288.544L180.695 357.701C176.808 367.806 184.267 378.667 195.095 378.667C200.632 378.667 205.744 375.702 208.491 370.893L242.108 312.062C244.956 307.077 250.26 304 256 304C261.741 304 267.045 307.077 269.893 312.062L303.51 370.893C306.257 375.702 311.369 378.667 316.905 378.667C327.734 378.667 335.194 367.806 331.307 357.701L304.709 288.544C304.561 288.165 304.414 287.783 304.265 287.399C302.599 283.089 300.869 278.612 300.269 274.238C298.27 259.606 305.082 245.169 317.649 237.41C321.406 235.092 325.963 233.581 330.349 232.128C330.74 232 331.128 231.87 331.514 231.742L377.92 216.273C384.736 214.001 389.334 207.623 389.334 200.439Z" fill="#DFDFDF"/>
</svg>
