<svg width="512" height="512" viewBox="0 0 512 512" fill="none" xmlns="http://www.w3.org/2000/svg">
<g clip-path="url(#clip0_1617_3773)">
<path d="M110.212 381.259C113.012 385.444 116.902 388.784 121.462 390.918C126.022 393.052 131.078 393.899 136.085 393.367C141.091 392.836 145.857 390.946 149.868 387.901C153.878 384.857 156.98 380.775 158.838 376.096C160.696 371.417 161.24 366.318 160.41 361.353C159.581 356.387 157.41 351.742 154.132 347.921C150.854 344.099 146.594 341.246 141.812 339.671C137.03 338.095 131.909 337.857 127.001 338.981C124.795 332.42 123.669 325.544 123.667 318.623C123.61 310.38 125.204 302.209 128.357 294.593C131.509 286.977 136.156 280.069 142.022 274.279C148.067 278.784 155.568 280.885 163.073 280.175C170.579 279.465 177.553 275.995 182.646 270.436C187.739 264.878 190.587 257.627 190.64 250.088C190.692 242.55 187.944 235.26 182.929 229.631C177.914 224.003 170.988 220.436 163.493 219.622C155.998 218.808 148.468 220.805 142.362 225.226C136.255 229.647 132.007 236.177 130.44 243.551C128.872 250.925 130.098 258.618 133.879 265.14C126.731 272.084 121.062 280.401 117.212 289.592C113.363 298.783 111.412 308.658 111.477 318.623C111.483 327.324 112.982 335.961 115.909 344.155C110.417 348.455 106.77 354.686 105.712 361.579C104.654 368.473 106.263 375.511 110.212 381.259ZM170.596 264.966C167.94 266.805 164.841 267.901 161.619 268.141C158.398 268.381 155.171 267.756 152.271 266.332C159.466 262.052 167.6 259.599 175.962 259.189C174.619 261.486 172.787 263.458 170.596 264.966ZM142.263 246.576C143.032 242.343 145.27 238.517 148.584 235.774C151.898 233.03 156.075 231.544 160.377 231.579C164.679 231.613 168.831 233.165 172.101 235.962C175.37 238.759 177.547 242.62 178.248 246.865C165.911 246.931 153.862 250.594 143.575 257.405C142.038 254.015 141.58 250.235 142.263 246.576ZM132.787 350.477C135.019 350.472 137.224 350.957 139.248 351.9C141.271 352.842 143.062 354.218 144.494 355.93C145.926 357.642 146.964 359.648 147.535 361.806C148.105 363.964 148.194 366.221 147.795 368.417C147.447 367.882 147.016 367.407 146.519 367.008C140.76 362.465 135.916 356.869 132.245 350.518C132.426 350.511 132.605 350.477 132.787 350.477ZM117.828 362.942C118.326 360.317 119.512 357.872 121.266 355.856C125.766 363.87 131.796 370.922 139.013 376.612C139.887 377.27 140.924 377.675 142.013 377.783C141.813 377.935 141.65 378.122 141.438 378.267C138.956 379.975 136.023 380.908 133.01 380.948C129.997 380.989 127.04 380.134 124.513 378.494C121.985 376.854 120.001 374.5 118.811 371.732C117.621 368.964 117.279 365.905 117.828 362.942Z" fill="#D3D3D3"/>
<path d="M103.674 291.093C105.214 286.397 107.155 281.842 109.477 277.48C99.8752 260.387 96.9356 240.346 101.224 221.216C105.513 202.085 116.726 185.217 132.706 173.859C144.889 165.305 159.324 160.532 174.205 160.137C189.086 159.742 203.753 163.743 216.373 171.64C218.4 172.903 220.755 173.542 223.143 173.478C225.531 173.414 227.847 172.65 229.804 171.28L368.468 74.2505C369.696 73.6257 371.035 73.2489 372.409 73.1419C372.709 73.1642 373.013 73.1761 373.313 73.1761H373.322L408.245 73.1508L398.054 114.517L392.745 118.229L368.792 113.074C367.195 112.729 365.545 112.71 363.94 113.016C362.336 113.322 360.809 113.948 359.451 114.856C358.092 115.764 356.931 116.936 356.034 118.302C355.138 119.668 354.525 121.2 354.233 122.807L350.804 141.649L331.236 136.07C329.435 135.557 327.54 135.466 325.699 135.803C323.857 136.14 322.117 136.897 320.615 138.015C319.113 139.133 317.889 140.582 317.037 142.249C316.185 143.916 315.729 145.758 315.703 147.63L315.48 164.347L298.673 159.935C297.027 159.503 295.309 159.421 293.628 159.693C291.948 159.965 290.344 160.587 288.918 161.516C287.493 162.446 286.278 163.664 285.351 165.092C284.425 166.52 283.808 168.126 283.539 169.807L278.855 199.204L257.269 214.296C255.4 215.603 253.935 217.408 253.04 219.506C252.146 221.604 251.858 223.911 252.209 226.164C254.483 240.752 252.65 255.685 246.916 269.29C241.181 282.894 231.772 294.634 219.742 303.193C207.78 311.607 193.633 316.37 179.017 316.903C164.402 317.436 149.945 313.715 137.403 306.194C136.38 310.258 135.861 314.432 135.858 318.623C135.858 318.859 135.885 319.091 135.89 319.326C150.147 326.7 166.153 330.026 182.167 328.943C198.181 327.86 213.593 322.409 226.727 313.182C240.663 303.351 251.566 289.812 258.199 274.1C264.832 258.387 266.929 241.131 264.254 224.287L290.078 206.231L295.578 171.727L321.183 178.448C321.677 178.579 322.186 178.646 322.697 178.648C323.36 178.651 324.017 178.517 324.627 178.255C325.236 177.993 325.785 177.609 326.24 177.126C326.695 176.644 327.046 176.072 327.271 175.448C327.496 174.825 327.59 174.161 327.548 173.499L327.894 147.793L354.15 155.28C354.701 155.439 355.272 155.52 355.846 155.521C357.232 155.514 358.571 155.012 359.62 154.106C360.669 153.199 361.36 151.948 361.569 150.578L366.227 124.99L392.209 130.584C392.617 130.666 393.032 130.706 393.447 130.703C395.073 130.707 396.667 130.255 398.049 129.398L406.061 123.792C407.714 122.505 408.937 120.745 409.566 118.746L422.117 67.8039C422.368 67.0338 422.437 66.216 422.318 65.4147C422.2 64.6135 421.896 63.8508 421.433 63.1866C420.969 62.5224 420.358 61.975 419.646 61.5874C418.935 61.1997 418.144 60.9825 417.334 60.9529L373.313 60.9856C373.033 60.9647 372.739 60.9543 372.438 60.9543C368.568 61.0496 364.794 62.1845 361.513 64.2401L222.816 161.292C208.17 152.133 191.149 147.492 173.88 147.951C156.612 148.409 139.861 153.946 125.721 163.869C106.187 177.708 92.8493 198.647 88.5642 222.199C84.2792 245.752 89.3877 270.046 102.796 289.878C103.078 290.295 103.385 290.682 103.674 291.093ZM225.129 355.698C225.139 353.595 224.772 351.506 224.045 349.532C223.343 347.625 222.262 345.882 220.867 344.405C219.51 342.963 217.875 341.811 216.06 341.02C214.467 340.286 212.768 339.811 211.025 339.613C208.836 339.37 206.635 339.257 204.432 339.276H185.947C184.931 339.188 183.908 339.305 182.939 339.621C181.969 339.937 181.073 340.445 180.305 341.115C178.984 342.76 178.346 344.849 178.525 346.951V391.603C178.393 393.615 178.959 395.612 180.129 397.255C180.684 397.915 181.384 398.437 182.174 398.781C182.965 399.125 183.824 399.282 184.685 399.239C185.516 399.265 186.343 399.11 187.107 398.784C187.871 398.458 188.555 397.968 189.111 397.35C190.362 395.708 190.965 393.662 190.804 391.603V373.43H194.328C195.978 373.378 197.622 373.649 199.168 374.227C200.631 374.911 201.916 375.926 202.921 377.191C204.559 379.221 206.008 381.397 207.251 383.691L211.807 391.529C212.903 393.418 213.739 394.8 214.367 395.746C214.992 396.712 215.791 397.554 216.724 398.228C217.745 398.923 218.96 399.276 220.194 399.239C221.251 399.259 222.296 399.017 223.236 398.535C224.098 398.085 224.826 397.414 225.343 396.591C225.839 395.838 226.11 394.959 226.123 394.057C225.945 392.585 225.526 391.153 224.882 389.817C223.91 387.514 222.774 385.284 221.483 383.144C220.031 380.682 218.37 378.349 216.519 376.172C215.112 374.47 213.462 372.984 211.623 371.761C215.352 370.958 218.77 369.094 221.465 366.395C224.005 363.426 225.315 359.6 225.129 355.698ZM211.337 360.992C210.271 362.177 208.859 362.998 207.301 363.338C205.082 363.86 202.807 364.102 200.528 364.057H190.804V349.047H200.831C203.416 348.887 206.01 349.168 208.501 349.878C209.765 350.409 210.841 351.308 211.587 352.459C212.339 353.653 212.725 355.041 212.697 356.451C212.792 358.078 212.311 359.685 211.337 360.992ZM306.739 397.383C307.906 395.856 308.478 393.957 308.349 392.039V359.621L328.828 392.109C329.444 393.035 330.058 393.941 330.671 394.828C331.268 395.698 331.958 396.501 332.73 397.221C333.436 397.888 334.266 398.41 335.173 398.756C336.107 399.089 337.093 399.253 338.084 399.239C342.45 399.239 344.664 396.511 344.664 391.13V345.486C344.796 343.576 344.255 341.68 343.135 340.128C342.619 339.522 341.972 339.04 341.242 338.721C340.512 338.402 339.719 338.253 338.924 338.286C338.142 338.257 337.365 338.409 336.651 338.729C335.938 339.049 335.308 339.53 334.81 340.133C333.701 341.688 333.168 343.58 333.301 345.486V378.435L312.296 345.551C311.682 344.547 311.088 343.582 310.513 342.657C310.01 341.825 309.427 341.044 308.772 340.326C308.187 339.709 307.493 339.206 306.724 338.843C305.839 338.453 304.879 338.263 303.912 338.286C302.528 338.301 301.179 338.72 300.03 339.49C298.881 340.26 297.981 341.349 297.441 342.623C296.955 344.121 296.737 345.693 296.798 347.267V392.039C296.676 393.94 297.229 395.824 298.361 397.356C298.887 397.946 299.531 398.418 300.252 398.743C300.973 399.067 301.753 399.236 302.544 399.239C303.334 399.241 304.116 399.077 304.839 398.757C305.562 398.438 306.209 397.969 306.739 397.383ZM375.305 397.307C375.858 397.936 376.543 398.435 377.312 398.769C378.08 399.103 378.913 399.263 379.751 399.239C380.579 399.263 381.402 399.104 382.161 398.773C382.921 398.442 383.598 397.948 384.144 397.325C385.385 395.687 385.985 393.652 385.831 391.603V349.915H397.775C399.454 350.035 401.118 349.521 402.438 348.475C402.969 347.986 403.387 347.388 403.665 346.722C403.943 346.056 404.074 345.338 404.048 344.616C404.073 343.895 403.945 343.177 403.672 342.509C403.398 341.842 402.986 341.24 402.462 340.743C401.143 339.675 399.467 339.15 397.775 339.276H361.65C360.006 339.171 358.381 339.676 357.087 340.694C356.543 341.187 356.115 341.795 355.832 342.473C355.55 343.151 355.42 343.883 355.453 344.616C355.427 345.333 355.553 346.047 355.823 346.711C356.094 347.375 356.502 347.974 357.022 348.468C358.323 349.523 359.979 350.041 361.65 349.915H373.593V391.603C373.445 393.65 374.054 395.68 375.305 397.307ZM478.476 42.6671C478.476 40.8588 477.94 39.0912 476.935 37.5876C475.931 36.0841 474.503 34.9122 472.832 34.2202C471.162 33.5282 469.323 33.3472 467.55 33.7C465.776 34.0527 464.147 34.9235 462.868 36.2022C461.59 37.4808 460.719 39.1099 460.366 40.8835C460.013 42.657 460.194 44.4953 460.886 46.166C461.578 47.8366 462.75 49.2645 464.254 50.2691C465.757 51.2738 467.525 51.81 469.333 51.81C471.757 51.8072 474.081 50.8431 475.795 49.129C477.509 47.415 478.473 45.0911 478.476 42.6671ZM469.333 47.2386C468.429 47.2386 467.545 46.9705 466.794 46.4681C466.042 45.9658 465.456 45.2519 465.11 44.4165C464.764 43.5812 464.673 42.6621 464.85 41.7753C465.026 40.8885 465.462 40.074 466.101 39.4346C466.74 38.7953 467.555 38.3599 468.442 38.1835C469.328 38.0072 470.247 38.0977 471.083 38.4437C471.918 38.7897 472.632 39.3756 473.134 40.1274C473.637 40.8792 473.905 41.763 473.905 42.6671C473.904 43.8792 473.422 45.0413 472.565 45.8983C471.707 46.7554 470.545 47.2374 469.333 47.2386ZM204.191 24.3814C205.999 24.3814 207.766 23.8452 209.27 22.8406C210.774 21.8359 211.945 20.408 212.637 18.7374C213.329 17.0667 213.51 15.2284 213.158 13.4549C212.805 11.6813 211.934 10.0522 210.655 8.77359C209.377 7.49494 207.748 6.62416 205.974 6.27138C204.201 5.91861 202.362 6.09966 200.692 6.79167C199.021 7.48367 197.593 8.65553 196.589 10.1591C195.584 11.6626 195.048 13.4303 195.048 15.2386C195.05 17.6625 196.015 19.9865 197.729 21.7005C199.443 23.4145 201.767 24.3786 204.191 24.3814ZM204.191 10.6671C205.095 10.6671 205.979 10.9352 206.73 11.4376C207.482 11.9399 208.068 12.6538 208.414 13.4892C208.76 14.3245 208.85 15.2436 208.674 16.1304C208.498 17.0172 208.062 17.8317 207.423 18.4711C206.784 19.1104 205.969 19.5458 205.082 19.7222C204.196 19.8985 203.276 19.808 202.441 19.462C201.606 19.116 200.892 18.5301 200.39 17.7783C199.887 17.0265 199.619 16.1427 199.619 15.2386C199.62 14.0265 200.102 12.8644 200.959 12.0074C201.816 11.1503 202.978 10.6683 204.191 10.6671ZM393.143 176.762C393.143 175.557 392.785 174.378 392.116 173.376C391.446 172.374 390.494 171.592 389.38 171.131C388.266 170.67 387.041 170.549 385.859 170.784C384.676 171.019 383.59 171.6 382.738 172.452C381.885 173.305 381.305 174.391 381.07 175.573C380.834 176.756 380.955 177.981 381.416 179.095C381.878 180.209 382.659 181.161 383.661 181.83C384.664 182.5 385.842 182.858 387.048 182.858C388.664 182.856 390.213 182.213 391.356 181.07C392.498 179.928 393.141 178.378 393.143 176.762ZM384 176.762C384 176.16 384.179 175.57 384.514 175.069C384.849 174.568 385.324 174.177 385.881 173.947C386.438 173.716 387.051 173.656 387.642 173.773C388.233 173.891 388.776 174.181 389.203 174.607C389.629 175.034 389.919 175.577 390.037 176.168C390.154 176.759 390.094 177.372 389.863 177.929C389.633 178.486 389.242 178.962 388.741 179.296C388.24 179.631 387.65 179.81 387.048 179.81C386.24 179.809 385.465 179.488 384.894 178.916C384.322 178.345 384.001 177.57 384 176.762ZM374.857 262.096C374.857 263.301 375.215 264.48 375.884 265.482C376.554 266.484 377.506 267.266 378.62 267.727C379.734 268.188 380.959 268.309 382.142 268.074C383.324 267.839 384.41 267.258 385.262 266.406C386.115 265.553 386.695 264.467 386.931 263.285C387.166 262.102 387.045 260.877 386.584 259.763C386.122 258.649 385.341 257.697 384.339 257.028C383.336 256.358 382.158 256 380.952 256C379.336 256.002 377.787 256.645 376.644 257.788C375.502 258.93 374.859 260.48 374.857 262.096ZM384 262.096C384 262.698 383.821 263.288 383.486 263.789C383.152 264.29 382.676 264.681 382.119 264.911C381.562 265.142 380.949 265.202 380.358 265.085C379.767 264.967 379.224 264.677 378.797 264.251C378.371 263.824 378.081 263.281 377.963 262.69C377.846 262.099 377.906 261.486 378.137 260.929C378.367 260.373 378.758 259.897 379.259 259.562C379.76 259.227 380.35 259.048 380.952 259.048C381.76 259.049 382.535 259.37 383.107 259.942C383.678 260.513 383.999 261.288 384 262.096ZM131.048 146.286C132.253 146.286 133.432 145.929 134.434 145.259C135.436 144.589 136.218 143.637 136.679 142.523C137.14 141.41 137.261 140.184 137.026 139.002C136.791 137.819 136.21 136.733 135.358 135.881C134.505 135.029 133.419 134.448 132.237 134.213C131.054 133.978 129.829 134.098 128.715 134.56C127.601 135.021 126.649 135.802 125.98 136.805C125.31 137.807 124.952 138.985 124.952 140.191C124.954 141.807 125.597 143.356 126.74 144.499C127.882 145.642 129.432 146.284 131.048 146.286ZM131.048 137.143C131.65 137.143 132.24 137.322 132.741 137.657C133.242 137.992 133.633 138.468 133.863 139.025C134.094 139.582 134.154 140.194 134.037 140.786C133.919 141.377 133.629 141.92 133.203 142.346C132.776 142.772 132.233 143.062 131.642 143.18C131.051 143.298 130.438 143.237 129.881 143.007C129.325 142.776 128.849 142.385 128.514 141.884C128.179 141.383 128 140.794 128 140.191C128.001 139.383 128.322 138.608 128.894 138.037C129.465 137.465 130.24 137.144 131.048 137.143Z" fill="#D3D3D3"/>
<path d="M6.09524 451.048C9.46155 451.048 12.1905 448.319 12.1905 444.953C12.1905 441.586 9.46155 438.857 6.09524 438.857C2.72893 438.857 0 441.586 0 444.953C0 448.319 2.72893 451.048 6.09524 451.048Z" fill="#D3D3D3"/>
<path d="M33.5242 438.857H24.3814C22.7648 438.857 21.2145 439.5 20.0714 440.643C18.9283 441.786 18.2861 443.336 18.2861 444.953C18.2861 446.569 18.9283 448.12 20.0714 449.263C21.2145 450.406 22.7648 451.048 24.3814 451.048H33.5242C35.1408 451.048 36.6911 450.406 37.8342 449.263C38.9773 448.12 39.6195 446.569 39.6195 444.953C39.6195 443.336 38.9773 441.786 37.8342 440.643C36.6911 439.5 35.1408 438.857 33.5242 438.857ZM487.619 438.857H478.477C476.86 438.857 475.31 439.5 474.167 440.643C473.024 441.786 472.381 443.336 472.381 444.953C472.381 446.569 473.024 448.12 474.167 449.263C475.31 450.406 476.86 451.048 478.477 451.048H487.619C489.236 451.048 490.786 450.406 491.929 449.263C493.073 448.12 493.715 446.569 493.715 444.953C493.715 443.336 493.073 441.786 491.929 440.643C490.786 439.5 489.236 438.857 487.619 438.857Z" fill="#D3D3D3"/>
<path d="M505.905 451.048C509.271 451.048 512 448.319 512 444.953C512 441.586 509.271 438.857 505.905 438.857C502.539 438.857 499.81 441.586 499.81 444.953C499.81 448.319 502.539 451.048 505.905 451.048Z" fill="#D3D3D3"/>
<path d="M459.342 438.857H428.162C430.329 435.16 431.474 430.952 431.477 426.667V304.762C431.459 298.301 428.884 292.111 424.316 287.543C419.747 282.974 413.557 280.4 407.096 280.381H268.602C266.758 284.579 264.64 288.652 262.26 292.571H407.097C410.329 292.575 413.427 293.86 415.713 296.146C417.998 298.431 419.284 301.53 419.287 304.762V426.667C419.284 429.899 417.998 432.997 415.713 435.283C413.427 437.568 410.329 438.854 407.097 438.857H161.094C149.63 437.993 138.92 432.815 131.123 424.367L96.5549 380.748C94.1435 377.222 92.8141 373.069 92.7301 368.797C92.646 364.526 93.8109 360.324 96.0817 356.705L103.784 346.156C102.103 341.036 100.893 335.774 100.168 330.434L86.2366 349.518C82.3853 355.289 80.394 362.101 80.5308 369.038C80.6675 375.975 82.9257 382.703 87.0016 388.318L121.57 431.939C123.674 434.523 126.081 436.846 128.739 438.857H52.6593C51.7922 438.744 50.9108 438.817 50.0742 439.071C49.2375 439.326 48.4648 439.756 47.8076 440.333C47.1504 440.91 46.6238 441.62 46.2631 442.417C45.9024 443.213 45.7158 444.078 45.7158 444.952C45.7158 445.827 45.9024 446.691 46.2631 447.488C46.6238 448.285 47.1504 448.995 47.8076 449.572C48.4648 450.149 49.2375 450.579 50.0742 450.833C50.9108 451.088 51.7922 451.161 52.6593 451.048H459.342C460.209 451.161 461.09 451.088 461.927 450.833C462.763 450.579 463.536 450.149 464.193 449.572C464.85 448.995 465.377 448.285 465.738 447.488C466.098 446.691 466.285 445.827 466.285 444.952C466.285 444.078 466.098 443.213 465.738 442.417C465.377 441.62 464.85 440.91 464.193 440.333C463.536 439.756 462.763 439.326 461.927 439.071C461.09 438.817 460.209 438.744 459.342 438.857Z" fill="#D3D3D3"/>
<path d="M247.093 398.248H277.974C279.55 398.357 281.107 397.852 282.319 396.839C282.816 396.364 283.206 395.79 283.466 395.153C283.725 394.517 283.848 393.834 283.826 393.147C283.853 392.448 283.733 391.75 283.473 391.1C283.213 390.45 282.819 389.862 282.317 389.375C281.105 388.363 279.549 387.858 277.974 387.966H251.951V372.401H275.064C276.597 372.518 278.113 372.022 279.281 371.022C279.748 370.556 280.113 369.999 280.355 369.386C280.597 368.772 280.709 368.116 280.686 367.457C280.711 366.8 280.596 366.145 280.349 365.535C280.103 364.926 279.729 364.375 279.254 363.921C278.08 362.956 276.58 362.48 275.064 362.591H251.951V349.281H277.094C278.663 349.399 280.218 348.909 281.436 347.912C282.38 346.938 282.908 345.635 282.909 344.279C282.91 342.922 282.382 341.619 281.439 340.644C280.22 339.647 278.664 339.157 277.094 339.275H247.093C245.67 339.228 244.253 339.492 242.942 340.049C241.824 340.571 240.935 341.482 240.442 342.613C239.885 343.989 239.623 345.467 239.671 346.951V390.573C239.491 392.671 240.12 394.759 241.43 396.409C242.2 397.082 243.1 397.592 244.073 397.909C245.047 398.225 246.074 398.34 247.093 398.248Z" fill="#D3D3D3"/>
<path d="M224.844 106.871L222.232 110.22L223.799 111.208L225.584 107.337H225.639L227.285 111.18L229.016 110.193L226.38 106.895V106.841L230.525 107.337V105.469L226.38 106.018V105.963L228.989 102.531L227.343 101.599L225.667 105.442H225.612L223.911 101.623L222.232 102.586L224.816 105.935V105.99L220.778 105.469V107.337L224.844 106.816V106.871Z" fill="#D3D3D3"/>
<path d="M484.571 130.173V126.994L477.51 127.93V127.836L481.956 121.99L479.149 120.399L476.297 126.946H476.199L473.301 120.445L470.445 122.085L474.843 127.79V127.884L467.968 126.994V130.173L474.889 129.286V129.381L470.445 135.086L473.112 136.771L476.154 130.173H476.245L479.052 136.722L481.999 135.04L477.51 129.426V129.332L484.571 130.173Z" fill="#D3D3D3"/>
<path d="M349.568 61.0224L345.734 65.9443L348.032 67.3981L350.659 61.7081H350.735L353.158 67.3554L355.7 65.9047L351.826 61.0621V60.9798L357.919 61.7081V58.9653L351.826 59.7699V59.6906L355.66 54.6468L353.24 53.2754L350.778 58.9226H350.699L348.197 53.315L345.734 54.7291L349.528 59.651V59.7302L343.595 58.9653V61.7081L349.568 60.9402V61.0224Z" fill="#D3D3D3"/>
<path d="M360.088 466.286H334.769C333.236 466.409 331.807 467.104 330.764 468.234C329.721 469.363 329.142 470.844 329.142 472.381C329.142 473.919 329.721 475.399 330.764 476.529C331.807 477.658 333.236 478.354 334.769 478.477H360.088C361.62 478.354 363.05 477.658 364.092 476.529C365.135 475.399 365.714 473.919 365.714 472.381C365.714 470.844 365.135 469.363 364.092 468.234C363.05 467.104 361.62 466.409 360.088 466.286ZM177.23 466.286H151.912C150.379 466.409 148.949 467.104 147.907 468.234C146.864 469.363 146.285 470.844 146.285 472.381C146.285 473.919 146.864 475.399 147.907 476.529C148.949 477.658 150.379 478.354 151.912 478.477H177.23C178.763 478.354 180.192 477.658 181.235 476.529C182.278 475.399 182.857 473.919 182.857 472.381C182.857 470.844 182.278 469.363 181.235 468.234C180.192 467.104 178.763 466.409 177.23 466.286ZM316.952 466.286H195.047C193.431 466.286 191.88 466.928 190.737 468.071C189.594 469.214 188.952 470.765 188.952 472.381C188.952 473.998 189.594 475.548 190.737 476.691C191.88 477.834 193.431 478.477 195.047 478.477H243.626V484.572H219.428C217.812 484.572 216.261 485.214 215.118 486.357C213.975 487.5 213.333 489.051 213.333 490.667C213.333 492.284 213.975 493.834 215.118 494.977C216.261 496.12 217.812 496.762 219.428 496.762H295.619C297.235 496.762 298.785 496.12 299.929 494.977C301.072 493.834 301.714 492.284 301.714 490.667C301.714 489.051 301.072 487.5 299.929 486.357C298.785 485.214 297.235 484.572 295.619 484.572H268.373V478.477H316.952C318.568 478.477 320.119 477.834 321.262 476.691C322.405 475.548 323.047 473.998 323.047 472.381C323.047 470.765 322.405 469.214 321.262 468.071C320.119 466.928 318.568 466.286 316.952 466.286Z" fill="#D3D3D3"/>
</g>
<defs>
<clipPath id="clip0_1617_3773">
<rect width="512" height="512" fill="white"/>
</clipPath>
</defs>
</svg>
